PathFileType	4	(X/Y/Z)	./resultDataOpenSim/trcMotMarkerGrf/sub06/qtm-03-03.trc
DataRate	CameraRate	NumFrames	NumMarkers	Units	OrigDataRate	OrigDataStartFrame	OrigNumFrames
250.000000	250.000000	11	24	m	250.000000	124	495
Frame#	Time	L.Toe.Tip			R.Toe.Tip			L.Ankle.Lat			R.Ankle.Lat			L.Ankle.Med			R.Ankle.Med			L.Heel			R.Heel			L.Knee.Lat			R.Knee.Lat			L.Knee.Med			R.Knee.Med			L.Thigh.Upper			R.Thigh.Upper			L.ASIS			R.ASIS			V.Sacral			L.Acromium			R.Acromium			C7			L.Elbow			R.Elbow			L.Wrist.Lat			R.Wrist.Lat
		X1	Y1	Z1	X2	Y2	Z2	X3	Y3	Z3	X4	Y4	Z4	X5	Y5	Z5	X6	Y6	Z6	X7	Y7	Z7	X8	Y8	Z8	X9	Y9	Z9	X10	Y10	Z10	X11	Y11	Z11	X12	Y12	Z12	X13	Y13	Z13	X14	Y14	Z14	X15	Y15	Z15	X16	Y16	Z16	X17	Y17	Z17	X18	Y18	Z18	X19	Y19	Z19	X20	Y20	Z20	X21	Y21	Z21	X22	Y22	Z22	X23	Y23	Z23	X24	Y24	Z24

124	0.492	-0.13540242	0.10985779	-0.058534437	-0.79011229	0.034643293	0.089618866	-0.26314898	0.095880424	-0.075655786	-0.9208645	0.071450056	0.099333695	-0.26426969	0.11373159	0.0084903833	-0.88942093	0.088084126	0.015350826	-0.31514449	0.039785001	-0.024918529	-0.97370015	0.054298475	0.031914707	-0.37196319	0.44946021	-0.082931591	-0.73856607	0.41841129	0.14209879	-0.38563194	0.43932277	0.040797646	-0.75504144	0.4190923	0.009534924	-0.56714496	0.78899236	-0.13210534	-0.64491192	0.76889513	0.20936043	-0.5087408	0.83045741	-0.075817121	-0.53120541	0.81681619	0.17171578	-0.70857359	0.90340132	0.048891493	-0.59294546	1.3099279	-0.13831048	-0.56044909	1.2990132	0.21998829	-0.65314293	1.3411071	0.046949252	-0.71766714	1.0245704	-0.17826413	-0.57949134	0.98476646	0.3165143	-0.65150011	0.79838546	-0.25047057	-0.34668178	0.89120884	0.29240156
125	0.496	-0.12402898	0.11058071	-0.057157997	-0.79007329	0.034631639	0.089643939	-0.25161664	0.095416778	-0.074563535	-0.92038864	0.071978301	0.099458922	-0.25328073	0.11308721	0.0097228256	-0.88898353	0.088370938	0.015384196	-0.30312556	0.03852726	-0.023856726	-0.97352	0.055254532	0.032035677	-0.36424842	0.44733261	-0.081831771	-0.73411753	0.41690641	0.14215687	-0.3787159	0.43707711	0.042030115	-0.75042802	0.41774614	0.0095880508	-0.55928775	0.78595003	-0.13208046	-0.63902195	0.76682333	0.20954513	-0.50125988	0.82780686	-0.075617593	-0.52497869	0.814464	0.17211356	-0.7017937	0.9008534	0.047622098	-0.58658748	1.3074656	-0.13843335	-0.55449734	1.2965166	0.22006418	-0.64708141	1.3389214	0.046775892	-0.71175547	1.0223596	-0.17802826	-0.57188652	0.98213834	0.31685341	-0.64729875	0.79593542	-0.25076578	-0.33841657	0.8903981	0.29183728
126	0.5	-0.11314159	0.11091076	-0.055790984	-0.79003388	0.034629956	0.089684378	-0.24056173	0.094728894	-0.073397903	-0.91989004	0.072575717	0.099614355	-0.24272124	0.11233698	0.011029715	-0.88857236	0.088721437	0.01547566	-0.2916439	0.037202941	-0.022401809	-0.97339753	0.05636545	0.032265848	-0.35639685	0.44525727	-0.080772765	-0.72962607	0.41540277	0.14226548	-0.37186223	0.43479548	0.043162041	-0.74568198	0.41636162	0.0096720663	-0.5515011	0.78288517	-0.13203038	-0.63303255	0.76474828	0.20978469	-0.49370954	0.82512672	-0.075387805	-0.51874119	0.81214399	0.17251931	-0.69484447	0.89818933	0.046019638	-0.58022798	1.3050179	-0.13857656	-0.54856304	1.2940014	0.22013947	-0.64085949	1.3366573	0.046548652	-0.70579636	1.0201113	-0.17783076	-0.56426582	0.9795264	0.31715069	-0.64291675	0.79349713	-0.2510277	-0.33030514	0.88953083	0.29133177
127	0.504	-0.102744	0.11083824	-0.054429613	-0.78999998	0.034624325	0.089719608	-0.22998876	0.09379016	-0.072170814	-0.91938721	0.073246238	0.099784536	-0.23260347	0.11142905	0.012334933	-0.88812285	0.089111179	0.015589582	-0.28072447	0.035818775	-0.020904861	-0.97329627	0.057619303	0.032566155	-0.34840719	0.44323247	-0.079728675	-0.72508332	0.41388838	0.142426	-0.3650345	0.43246968	0.044184352	-0.7408216	0.414934	0.0098078728	-0.54381401	0.77983051	-0.13195414	-0.62689574	0.76261898	0.20989029	-0.48609099	0.82241351	-0.075113024	-0.51253789	0.80982958	0.17292507	-0.68769768	0.89540758	0.044093711	-0.57389719	1.3026137	-0.13875948	-0.54263329	1.2914736	0.22021018	-0.63461178	1.334309	0.046319626	-0.69969312	1.0177875	-0.17767974	-0.55661907	0.97693102	0.31740531	-0.63825423	0.79109329	-0.25123081	-0.32228624	0.88860639	0.29086505
128	0.508	-0.092816813	0.11036145	-0.053022988	-0.78996997	0.034607033	0.089743205	-0.21988523	0.092595832	-0.070896343	-0.91888012	0.073994557	0.099968233	-0.2229194	0.11030904	0.013597883	-0.8876	0.089545944	0.015723605	-0.27037419	0.03434276	-0.019591361	-0.97309638	0.05896857	0.032804443	-0.34043027	0.44121259	-0.078735572	-0.7204999	0.41236351	0.14263826	-0.35819107	0.43009868	0.04510693	-0.73585897	0.41345897	0.0099992762	-0.53610695	0.77686335	-0.13182653	-0.62059467	0.76037086	0.2096512	-0.47840296	0.81966497	-0.074778713	-0.50636164	0.80750423	0.1733443	-0.68035079	0.89253676	0.041934742	-0.56760006	1.3002624	-0.13899447	-0.53669804	1.2889432	0.22027069	-0.62845891	1.331928	0.046122229	-0.69337693	1.0153803	-0.17756337	-0.54896347	0.97434816	0.31763092	-0.63343323	0.78869924	-0.25141928	-0.31431024	0.88761471	0.29041939
129	0.512	-0.08333137	0.109493	-0.051511489	-0.78994512	0.03458972	0.089773132	-0.21023075	0.091156377	-0.069594329	-0.91834947	0.074823182	0.10017819	-0.21363284	0.10893851	0.014826393	-0.8869943	0.090048099	0.015891212	-0.26055277	0.032700188	-0.018485698	-0.97276559	0.060401059	0.032957923	-0.33254886	0.43915984	-0.077821498	-0.71589363	0.41085003	0.14289792	-0.35128291	0.42769309	0.045956372	-0.73079252	0.41193235	0.010232973	-0.52828124	0.77401253	-0.13163855	-0.61421156	0.75801908	0.20907961	-0.47064089	0.81688435	-0.074378299	-0.50015807	0.80517489	0.17379492	-0.67280271	0.88961414	0.039658815	-0.56129357	1.2979328	-0.1392668	-0.53075164	1.2864219	0.22031392	-0.62238022	1.3295488	0.045943786	-0.68693278	1.0129503	-0.17744444	-0.54133494	0.97177726	0.31783399	-0.62863086	0.78628268	-0.25164797	-0.30636042	0.88654619	0.28998559
130	0.516	-0.074273494	0.10826038	-0.049877839	-0.7899379	0.03459796	0.089836327	-0.20101483	0.089486945	-0.068286254	-0.91778564	0.075729236	0.10042386	-0.20472679	0.10729831	0.016032531	-0.88630053	0.090634729	0.01609374	-0.25125409	0.030853899	-0.01748501	-0.97239607	0.06195828	0.033139273	-0.32471565	0.43706976	-0.07697242	-0.71128158	0.4093632	0.14319174	-0.34426828	0.42527465	0.046757018	-0.72561876	0.41035199	0.010501757	-0.52035359	0.77123826	-0.13141646	-0.60789245	0.75567494	0.20839775	-0.46280773	0.81408967	-0.073922401	-0.49388357	0.80286409	0.17427833	-0.6650351	0.88667176	0.037372728	-0.55490733	1.2955706	-0.13954323	-0.52479244	1.2839192	0.22033406	-0.6162886	1.3271715	0.045750147	-0.68052157	1.0105765	-0.17730351	-0.53376645	0.96921885	0.3180097	-0.62387917	0.78384389	-0.25192831	-0.29843823	0.88540029	0.28955844
131	0.52	-0.065649217	0.10669414	-0.048150093	-0.78994391	0.034646919	0.089934303	-0.19223768	0.08759996	-0.066987483	-0.91719511	0.07670426	0.10070475	-0.19626727	0.10539991	0.017207583	-0.88554364	0.091319067	0.016330688	-0.24251385	0.028828113	-0.016482902	-0.9720676	0.063686042	0.033439763	-0.31688045	0.4349443	-0.076167369	-0.70665992	0.40789721	0.14351521	-0.33714092	0.42286428	0.047514226	-0.72033738	0.40872162	0.010802829	-0.51236497	0.76852621	-0.13118941	-0.60172069	0.75344374	0.20778681	-0.45493295	0.81131429	-0.073443027	-0.48752982	0.8005952	0.17477657	-0.65701438	0.88373738	0.035177175	-0.54840721	1.2931546	-0.13980521	-0.51883625	1.2814419	0.22033002	-0.6101231	1.3247874	0.045515475	-0.67418444	1.0082773	-0.17716675	-0.526259	0.96667412	0.31814882	-0.61912256	0.78139986	-0.252253	-0.2905473	0.88418513	0.28913405
132	0.524	-0.057470192	0.10481458	-0.046357238	-0.78992529	0.034723369	0.090035478	-0.18390315	0.085504242	-0.0657048	-0.91656976	0.077742943	0.10102023	-0.18836408	0.10327506	0.018336377	-0.88477084	0.092117918	0.016612764	-0.23435548	0.026659502	-0.015489585	-0.97173684	0.065573073	0.033837673	-0.30902964	0.43278073	-0.075398636	-0.70199283	0.40644338	0.14387678	-0.32992267	0.42047314	0.048224644	-0.71495192	0.40705471	0.011126601	-0.50431455	0.76592247	-0.13096815	-0.59565961	0.75134654	0.20726714	-0.44705992	0.80858264	-0.072963395	-0.48110117	0.79838024	0.17526607	-0.64873738	0.88085332	0.033208981	-0.541813	1.2907105	-0.14005931	-0.51292143	1.2789929	0.22030627	-0.60387335	1.3223954	0.045235411	-0.66782777	1.0060158	-0.17707572	-0.51878133	0.96414625	0.31824091	-0.61432741	0.778962	-0.25262249	-0.28268697	0.88290703	0.28870928
133	0.528	-0.049742834	0.10263092	-0.044517845	-0.78985385	0.034794182	0.090116708	-0.17601659	0.083203691	-0.064442083	-0.91586667	0.078852491	0.1013759	-0.18103966	0.10094157	0.019422316	-0.88398529	0.093033075	0.016948933	-0.22677266	0.024361495	-0.014595242	-0.97130132	0.067552783	0.034265596	-0.30115649	0.430585	-0.074663822	-0.69723927	0.40500595	0.14427977	-0.32262963	0.41810485	0.048893466	-0.70948158	0.40537958	0.011473638	-0.49620363	0.76346488	-0.13075386	-0.58960935	0.7493407	0.20677815	-0.43919815	0.80588968	-0.072466889	-0.47459747	0.79621499	0.17573034	-0.64033417	0.87810941	0.031703742	-0.53515902	1.288274	-0.1403218	-0.507093	1.2765701	0.22026789	-0.59755953	1.3200043	0.044919625	-0.66136053	1.0037583	-0.17704701	-0.51130793	0.96164204	0.31827581	-0.60948063	0.77653498	-0.25303736	-0.27486846	0.88156662	0.28828859
134	0.532	-0.04246793	0.10014608	-0.042659062	-0.78974518	0.034829904	0.090187506	-0.16858145	0.080698726	-0.06320344	-0.915026	0.080057132	0.10178387	-0.17419788	0.098396522	0.020489997	-0.88313222	0.094043754	0.017336074	-0.21973361	0.02192593	-0.013832586	-0.97075302	0.069587367	0.034731869	-0.29325171	0.42837668	-0.073956247	-0.69238352	0.40359583	0.14471424	-0.31526503	0.41576317	0.049527441	-0.70396276	0.40373595	0.011874886	-0.48806245	0.76114396	-0.13054838	-0.58348901	0.74737794	0.20627997	-0.43129405	0.80322783	-0.071925234	-0.46801806	0.79408723	0.17616283	-0.63216238	0.87565725	0.030998241	-0.52846469	1.2858654	-0.14060583	-0.50136769	1.2741732	0.22021374	-0.59120151	1.3176212	0.044575115	-0.65476289	1.0015005	-0.17706866	-0.50384187	0.95917325	0.31824732	-0.60453906	0.77412294	-0.25347748	-0.26712223	0.88016459	0.28788764
